<mxfile host="app.diagrams.net" modified="2022-11-02T05:05:42.286Z" agent="5.0 (Windows NT 10.0; Win64; x64) AppleWebKit/537.36 (KHTML, like Gecko) Chrome/106.0.0.0 Safari/537.36" etag="5pPF1f0k1O3NoXmRqacl" version="20.5.1" type="github">
  <diagram id="C5RBs43oDa-KdzZeNtuy" name="Page-1">
    <mxGraphModel dx="2425" dy="1843" grid="1" gridSize="10" guides="1" tooltips="1" connect="1" arrows="1" fold="1" page="1" pageScale="1" pageWidth="827" pageHeight="1169" math="0" shadow="0">
      <root>
        <mxCell id="WIyWlLk6GJQsqaUBKTNV-0" />
        <mxCell id="WIyWlLk6GJQsqaUBKTNV-1" parent="WIyWlLk6GJQsqaUBKTNV-0" />
        <mxCell id="O8BiqRMOCbHj1TRFgqL9-0" style="edgeStyle=orthogonalEdgeStyle;rounded=0;orthogonalLoop=1;jettySize=auto;html=1;entryX=0;entryY=0.5;entryDx=0;entryDy=0;entryPerimeter=0;" edge="1" parent="WIyWlLk6GJQsqaUBKTNV-1" source="O8BiqRMOCbHj1TRFgqL9-5" target="O8BiqRMOCbHj1TRFgqL9-13">
          <mxGeometry relative="1" as="geometry">
            <Array as="points">
              <mxPoint x="-360" y="435" />
              <mxPoint x="-360" y="190" />
            </Array>
          </mxGeometry>
        </mxCell>
        <mxCell id="O8BiqRMOCbHj1TRFgqL9-1" style="edgeStyle=orthogonalEdgeStyle;rounded=0;orthogonalLoop=1;jettySize=auto;html=1;exitX=0;exitY=0.5;exitDx=0;exitDy=0;entryX=0;entryY=0.5;entryDx=0;entryDy=0;entryPerimeter=0;" edge="1" parent="WIyWlLk6GJQsqaUBKTNV-1" source="O8BiqRMOCbHj1TRFgqL9-5" target="O8BiqRMOCbHj1TRFgqL9-12">
          <mxGeometry relative="1" as="geometry">
            <Array as="points">
              <mxPoint x="-360" y="435" />
              <mxPoint x="-360" y="150" />
            </Array>
          </mxGeometry>
        </mxCell>
        <mxCell id="O8BiqRMOCbHj1TRFgqL9-2" style="edgeStyle=orthogonalEdgeStyle;rounded=0;orthogonalLoop=1;jettySize=auto;html=1;exitX=0;exitY=0.5;exitDx=0;exitDy=0;entryX=0;entryY=0.5;entryDx=0;entryDy=0;entryPerimeter=0;" edge="1" parent="WIyWlLk6GJQsqaUBKTNV-1" source="O8BiqRMOCbHj1TRFgqL9-5" target="O8BiqRMOCbHj1TRFgqL9-11">
          <mxGeometry relative="1" as="geometry">
            <Array as="points">
              <mxPoint x="-360" y="435" />
              <mxPoint x="-360" y="110" />
            </Array>
          </mxGeometry>
        </mxCell>
        <mxCell id="O8BiqRMOCbHj1TRFgqL9-3" style="edgeStyle=orthogonalEdgeStyle;rounded=0;orthogonalLoop=1;jettySize=auto;html=1;exitX=0;exitY=0.5;exitDx=0;exitDy=0;entryX=0;entryY=0.5;entryDx=0;entryDy=0;entryPerimeter=0;" edge="1" parent="WIyWlLk6GJQsqaUBKTNV-1" source="O8BiqRMOCbHj1TRFgqL9-5" target="O8BiqRMOCbHj1TRFgqL9-10">
          <mxGeometry relative="1" as="geometry">
            <Array as="points">
              <mxPoint x="-360" y="435" />
              <mxPoint x="-360" y="70" />
            </Array>
          </mxGeometry>
        </mxCell>
        <mxCell id="O8BiqRMOCbHj1TRFgqL9-4" style="edgeStyle=orthogonalEdgeStyle;rounded=0;orthogonalLoop=1;jettySize=auto;html=1;exitX=0;exitY=0.5;exitDx=0;exitDy=0;entryX=0;entryY=0.5;entryDx=0;entryDy=0;entryPerimeter=0;" edge="1" parent="WIyWlLk6GJQsqaUBKTNV-1" source="O8BiqRMOCbHj1TRFgqL9-5" target="O8BiqRMOCbHj1TRFgqL9-9">
          <mxGeometry relative="1" as="geometry">
            <Array as="points">
              <mxPoint x="-360" y="435" />
              <mxPoint x="-360" y="30" />
            </Array>
          </mxGeometry>
        </mxCell>
        <mxCell id="O8BiqRMOCbHj1TRFgqL9-5" value="Exo Skeleton" style="swimlane;startSize=23;fillColor=#E5CCFF;" vertex="1" parent="WIyWlLk6GJQsqaUBKTNV-1">
          <mxGeometry x="142" y="360" width="298" height="150" as="geometry" />
        </mxCell>
        <mxCell id="O8BiqRMOCbHj1TRFgqL9-6" value="The actual implementation - i.e. the exo skeleton with patient inside. Implemented with sensors for Activation_Net inputs" style="rounded=0;whiteSpace=wrap;html=1;" vertex="1" parent="O8BiqRMOCbHj1TRFgqL9-5">
          <mxGeometry x="54" y="50" width="190" height="80" as="geometry" />
        </mxCell>
        <mxCell id="O8BiqRMOCbHj1TRFgqL9-7" value="Torque_Actor" style="swimlane;fillColor=#FF9999;" vertex="1" parent="WIyWlLk6GJQsqaUBKTNV-1">
          <mxGeometry x="970" y="30" width="288" height="310" as="geometry" />
        </mxCell>
        <mxCell id="O8BiqRMOCbHj1TRFgqL9-8" value="Deep Neural Net (DNN) which maps exo parameters and Activation_Net muscle activation predictions to knee/hip exo torques" style="rounded=0;whiteSpace=wrap;html=1;" vertex="1" parent="O8BiqRMOCbHj1TRFgqL9-7">
          <mxGeometry x="49" y="80.5" width="190" height="91" as="geometry" />
        </mxCell>
        <mxCell id="O8BiqRMOCbHj1TRFgqL9-9" value="Joint positions" style="html=1;shadow=0;dashed=0;align=center;verticalAlign=middle;shape=mxgraph.arrows2.arrow;dy=0.6;dx=40;notch=0;fillColor=#E5CCFF;" vertex="1" parent="WIyWlLk6GJQsqaUBKTNV-1">
          <mxGeometry x="-242" y="10" width="170" height="40" as="geometry" />
        </mxCell>
        <mxCell id="O8BiqRMOCbHj1TRFgqL9-10" value="Joint velocities" style="html=1;shadow=0;dashed=0;align=center;verticalAlign=middle;shape=mxgraph.arrows2.arrow;dy=0.6;dx=40;notch=0;fillColor=#E5CCFF;" vertex="1" parent="WIyWlLk6GJQsqaUBKTNV-1">
          <mxGeometry x="-242" y="50" width="170" height="40" as="geometry" />
        </mxCell>
        <mxCell id="O8BiqRMOCbHj1TRFgqL9-11" value="Joint accelerations" style="html=1;shadow=0;dashed=0;align=center;verticalAlign=middle;shape=mxgraph.arrows2.arrow;dy=0.6;dx=40;notch=0;fillColor=#E5CCFF;" vertex="1" parent="WIyWlLk6GJQsqaUBKTNV-1">
          <mxGeometry x="-242" y="90" width="170" height="40" as="geometry" />
        </mxCell>
        <mxCell id="O8BiqRMOCbHj1TRFgqL9-12" value="Applied torque" style="html=1;shadow=0;dashed=0;align=center;verticalAlign=middle;shape=mxgraph.arrows2.arrow;dy=0.6;dx=40;notch=0;fillColor=#E5CCFF;" vertex="1" parent="WIyWlLk6GJQsqaUBKTNV-1">
          <mxGeometry x="-242" y="130" width="170" height="40" as="geometry" />
        </mxCell>
        <mxCell id="O8BiqRMOCbHj1TRFgqL9-13" value="Interaction torque" style="html=1;shadow=0;dashed=0;align=center;verticalAlign=middle;shape=mxgraph.arrows2.arrow;dy=0.6;dx=40;notch=0;fillColor=#E5CCFF;" vertex="1" parent="WIyWlLk6GJQsqaUBKTNV-1">
          <mxGeometry x="-242" y="170" width="170" height="40" as="geometry" />
        </mxCell>
        <mxCell id="O8BiqRMOCbHj1TRFgqL9-14" value="Anthropometric measures" style="html=1;shadow=0;dashed=0;align=center;verticalAlign=middle;shape=mxgraph.arrows2.arrow;dy=0.6;dx=40;notch=0;fillColor=#99FF99;" vertex="1" parent="WIyWlLk6GJQsqaUBKTNV-1">
          <mxGeometry x="-242" y="210" width="170" height="40" as="geometry" />
        </mxCell>
        <mxCell id="O8BiqRMOCbHj1TRFgqL9-15" value="Predicted muscle activations" style="html=1;shadow=0;dashed=0;align=center;verticalAlign=middle;shape=mxgraph.arrows2.arrow;dy=0.6;dx=40;notch=0;fillColor=#99FFFF;" vertex="1" parent="WIyWlLk6GJQsqaUBKTNV-1">
          <mxGeometry x="786" y="191" width="184" height="40" as="geometry" />
        </mxCell>
        <mxCell id="O8BiqRMOCbHj1TRFgqL9-16" value="Current Joint positions" style="html=1;shadow=0;dashed=0;align=center;verticalAlign=middle;shape=mxgraph.arrows2.arrow;dy=0.6;dx=40;notch=0;fillColor=#E5CCFF;" vertex="1" parent="WIyWlLk6GJQsqaUBKTNV-1">
          <mxGeometry x="246" y="9" width="170" height="40" as="geometry" />
        </mxCell>
        <mxCell id="O8BiqRMOCbHj1TRFgqL9-17" value="Current Joint velocities" style="html=1;shadow=0;dashed=0;align=center;verticalAlign=middle;shape=mxgraph.arrows2.arrow;dy=0.6;dx=40;notch=0;fillColor=#E5CCFF;" vertex="1" parent="WIyWlLk6GJQsqaUBKTNV-1">
          <mxGeometry x="246" y="49" width="170" height="40" as="geometry" />
        </mxCell>
        <mxCell id="O8BiqRMOCbHj1TRFgqL9-18" value="Current Joint accelerations" style="html=1;shadow=0;dashed=0;align=center;verticalAlign=middle;shape=mxgraph.arrows2.arrow;dy=0.6;dx=40;notch=0;fillColor=#E5CCFF;" vertex="1" parent="WIyWlLk6GJQsqaUBKTNV-1">
          <mxGeometry x="246" y="89" width="170" height="40" as="geometry" />
        </mxCell>
        <mxCell id="O8BiqRMOCbHj1TRFgqL9-20" value="Anthropometric measures" style="html=1;shadow=0;dashed=0;align=center;verticalAlign=middle;shape=mxgraph.arrows2.arrow;dy=0.6;dx=40;notch=0;fillColor=#99FF99;" vertex="1" parent="WIyWlLk6GJQsqaUBKTNV-1">
          <mxGeometry x="790" y="311" width="180" height="40" as="geometry" />
        </mxCell>
        <mxCell id="O8BiqRMOCbHj1TRFgqL9-45" style="edgeStyle=orthogonalEdgeStyle;rounded=0;orthogonalLoop=1;jettySize=auto;html=1;exitX=0.5;exitY=1;exitDx=0;exitDy=0;" edge="1" parent="WIyWlLk6GJQsqaUBKTNV-1" source="O8BiqRMOCbHj1TRFgqL9-21">
          <mxGeometry relative="1" as="geometry">
            <mxPoint x="790" y="211" as="targetPoint" />
            <Array as="points">
              <mxPoint x="60" y="280" />
              <mxPoint x="60" y="330" />
              <mxPoint x="730" y="330" />
              <mxPoint x="730" y="211" />
            </Array>
          </mxGeometry>
        </mxCell>
        <mxCell id="O8BiqRMOCbHj1TRFgqL9-47" style="edgeStyle=orthogonalEdgeStyle;rounded=0;orthogonalLoop=1;jettySize=auto;html=1;exitX=0.5;exitY=1;exitDx=0;exitDy=0;" edge="1" parent="WIyWlLk6GJQsqaUBKTNV-1" source="O8BiqRMOCbHj1TRFgqL9-21" target="O8BiqRMOCbHj1TRFgqL9-46">
          <mxGeometry relative="1" as="geometry">
            <Array as="points">
              <mxPoint x="60" y="280" />
              <mxPoint x="60" y="330" />
              <mxPoint x="730" y="330" />
              <mxPoint x="730" y="251" />
            </Array>
          </mxGeometry>
        </mxCell>
        <mxCell id="O8BiqRMOCbHj1TRFgqL9-21" value="Activation_Net" style="swimlane;startSize=23;fillColor=#99FFFF;" vertex="1" parent="WIyWlLk6GJQsqaUBKTNV-1">
          <mxGeometry x="-70" y="18" width="270" height="262" as="geometry" />
        </mxCell>
        <mxCell id="O8BiqRMOCbHj1TRFgqL9-22" value="Deep Neural Net (DNN) which maps exo parameters and patient measurements to muscle activations. Also outputs a confidence value, which represents how confident the Net is of it&#39;s activation predictions" style="rounded=0;whiteSpace=wrap;html=1;" vertex="1" parent="O8BiqRMOCbHj1TRFgqL9-21">
          <mxGeometry x="40" y="80" width="190" height="120" as="geometry" />
        </mxCell>
        <mxCell id="O8BiqRMOCbHj1TRFgqL9-23" value="Joint Torques" style="html=1;shadow=0;dashed=0;align=center;verticalAlign=middle;shape=mxgraph.arrows2.bendArrow;dy=15;dx=38;notch=0;arrowHead=55;rounded=0;flipH=1;flipV=1;fillColor=#FF9999;" vertex="1" parent="WIyWlLk6GJQsqaUBKTNV-1">
          <mxGeometry x="440" y="340" width="624" height="130" as="geometry" />
        </mxCell>
        <mxCell id="O8BiqRMOCbHj1TRFgqL9-24" style="edgeStyle=orthogonalEdgeStyle;rounded=0;orthogonalLoop=1;jettySize=auto;html=1;exitX=0.5;exitY=0;exitDx=0;exitDy=0;entryX=0;entryY=0.5;entryDx=0;entryDy=0;entryPerimeter=0;" edge="1" parent="WIyWlLk6GJQsqaUBKTNV-1" source="O8BiqRMOCbHj1TRFgqL9-25" target="O8BiqRMOCbHj1TRFgqL9-14">
          <mxGeometry relative="1" as="geometry" />
        </mxCell>
        <mxCell id="O8BiqRMOCbHj1TRFgqL9-25" value="Physiotherapist (configured at beginning of session)" style="rounded=0;whiteSpace=wrap;html=1;fillColor=#99FF99;" vertex="1" parent="WIyWlLk6GJQsqaUBKTNV-1">
          <mxGeometry x="-330" y="259" width="120" height="51" as="geometry" />
        </mxCell>
        <mxCell id="O8BiqRMOCbHj1TRFgqL9-26" value="&lt;font style=&quot;font-size: 36px;&quot;&gt;Implementation&lt;/font&gt;" style="rounded=0;whiteSpace=wrap;html=1;strokeColor=#000000;fillColor=#E1D5E7;" vertex="1" parent="WIyWlLk6GJQsqaUBKTNV-1">
          <mxGeometry x="-280" y="-50" width="920" height="50" as="geometry" />
        </mxCell>
        <mxCell id="O8BiqRMOCbHj1TRFgqL9-28" value="Gait_Agent" style="swimlane;fillColor=#FFFF33;" vertex="1" parent="WIyWlLk6GJQsqaUBKTNV-1">
          <mxGeometry x="416" y="24" width="288" height="261" as="geometry" />
        </mxCell>
        <mxCell id="O8BiqRMOCbHj1TRFgqL9-29" value="" style="rounded=0;whiteSpace=wrap;html=1;" vertex="1" parent="O8BiqRMOCbHj1TRFgqL9-28">
          <mxGeometry x="49" y="80.5" width="190" height="91" as="geometry" />
        </mxCell>
        <mxCell id="O8BiqRMOCbHj1TRFgqL9-31" value="Desired Joint positions" style="html=1;shadow=0;dashed=0;align=center;verticalAlign=middle;shape=mxgraph.arrows2.arrow;dy=0.6;dx=40;notch=0;fillColor=#FFFF00;direction=east;" vertex="1" parent="WIyWlLk6GJQsqaUBKTNV-1">
          <mxGeometry x="704" y="30" width="266" height="40" as="geometry" />
        </mxCell>
        <mxCell id="O8BiqRMOCbHj1TRFgqL9-32" value="Desired Joint Velocities" style="html=1;shadow=0;dashed=0;align=center;verticalAlign=middle;shape=mxgraph.arrows2.arrow;dy=0.6;dx=40;notch=0;fillColor=#FFFF00;direction=east;" vertex="1" parent="WIyWlLk6GJQsqaUBKTNV-1">
          <mxGeometry x="704" y="70" width="266" height="40" as="geometry" />
        </mxCell>
        <mxCell id="O8BiqRMOCbHj1TRFgqL9-33" value="Desired Joint Accelerations" style="html=1;shadow=0;dashed=0;align=center;verticalAlign=middle;shape=mxgraph.arrows2.arrow;dy=0.6;dx=40;notch=0;fillColor=#FFFF00;direction=east;" vertex="1" parent="WIyWlLk6GJQsqaUBKTNV-1">
          <mxGeometry x="704" y="110" width="266" height="40" as="geometry" />
        </mxCell>
        <mxCell id="O8BiqRMOCbHj1TRFgqL9-35" value="Desired Muscle Activations" style="html=1;shadow=0;dashed=0;align=center;verticalAlign=middle;shape=mxgraph.arrows2.arrow;dy=0.6;dx=40;notch=0;fillColor=#FFFF00;direction=east;" vertex="1" parent="WIyWlLk6GJQsqaUBKTNV-1">
          <mxGeometry x="704" y="151" width="266" height="40" as="geometry" />
        </mxCell>
        <mxCell id="O8BiqRMOCbHj1TRFgqL9-46" value="Confidence" style="html=1;shadow=0;dashed=0;align=center;verticalAlign=middle;shape=mxgraph.arrows2.arrow;dy=0.6;dx=40;notch=0;fillColor=#99FFFF;" vertex="1" parent="WIyWlLk6GJQsqaUBKTNV-1">
          <mxGeometry x="786" y="231" width="184" height="40" as="geometry" />
        </mxCell>
        <mxCell id="O8BiqRMOCbHj1TRFgqL9-48" value="Predicted muscle activations" style="html=1;shadow=0;dashed=0;align=center;verticalAlign=middle;shape=mxgraph.arrows2.arrow;dy=0.6;dx=40;notch=0;fillColor=#99FFFF;" vertex="1" parent="WIyWlLk6GJQsqaUBKTNV-1">
          <mxGeometry x="200" y="129" width="216" height="40" as="geometry" />
        </mxCell>
        <mxCell id="O8BiqRMOCbHj1TRFgqL9-49" value="Confidence" style="html=1;shadow=0;dashed=0;align=center;verticalAlign=middle;shape=mxgraph.arrows2.arrow;dy=0.6;dx=40;notch=0;fillColor=#99FFFF;" vertex="1" parent="WIyWlLk6GJQsqaUBKTNV-1">
          <mxGeometry x="200" y="170" width="216" height="39" as="geometry" />
        </mxCell>
        <mxCell id="O8BiqRMOCbHj1TRFgqL9-50" value="Interaction torque" style="html=1;shadow=0;dashed=0;align=center;verticalAlign=middle;shape=mxgraph.arrows2.arrow;dy=0.6;dx=40;notch=0;fillColor=#E5CCFF;" vertex="1" parent="WIyWlLk6GJQsqaUBKTNV-1">
          <mxGeometry x="790" y="271" width="180" height="40" as="geometry" />
        </mxCell>
        <mxCell id="O8BiqRMOCbHj1TRFgqL9-51" value="Anthropometric measures" style="html=1;shadow=0;dashed=0;align=center;verticalAlign=middle;shape=mxgraph.arrows2.arrow;dy=0.6;dx=40;notch=0;fillColor=#99FF99;" vertex="1" parent="WIyWlLk6GJQsqaUBKTNV-1">
          <mxGeometry x="236" y="210" width="180" height="40" as="geometry" />
        </mxCell>
      </root>
    </mxGraphModel>
  </diagram>
</mxfile>
